<?xml version="1.0" encoding="UTF-8" standalone="no"?>
<svg
   class="svg-icon"
   style="width: 1em; height: 1em;vertical-align: middle;fill:#BBEEFF;overflow: hidden;"
   viewBox="0 0 1024 1024"
   version="1.1"
   id="svg6"
   sodipodi:docname="calendar.svg"
   inkscape:version="1.2.1 (9c6d41e410, 2022-07-14)"
   xmlns:inkscape="http://www.inkscape.org/namespaces/inkscape"
   xmlns:sodipodi="http://sodipodi.sourceforge.net/DTD/sodipodi-0.dtd"
   xmlns="http://www.w3.org/2000/svg"
   xmlns:svg="http://www.w3.org/2000/svg">
  <defs
     id="defs10" />
  <sodipodi:namedview
     id="namedview8"
     pagecolor="#505050"
     bordercolor="#ffffff"
     borderopacity="1"
     inkscape:showpageshadow="0"
     inkscape:pageopacity="0"
     inkscape:pagecheckerboard="1"
     inkscape:deskcolor="#505050"
     showgrid="false"
     inkscape:zoom="0.39892578"
     inkscape:cx="-70.188494"
     inkscape:cy="279.50061"
     inkscape:window-width="1920"
     inkscape:window-height="992"
     inkscape:window-x="-8"
     inkscape:window-y="-8"
     inkscape:window-maximized="1"
     inkscape:current-layer="svg6" />
  <path
     d="M911.9 122H782V62a30 30 0 0 0-60 0v60h-180V62a30 30 0 0 0-60 0v60H302V62a30 30 0 0 0-60 0v60H112.1A80.1 80.1 0 0 0 32 202.1v709.8A80.1 80.1 0 0 0 112.1 992h799.8A80.1 80.1 0 0 0 992 911.9V202.1A80.1 80.1 0 0 0 911.9 122zM932 911.9a20.1 20.1 0 0 1-20.1 20.1H112.1a20.1 20.1 0 0 1-20.1-20.1V202.1A20.1 20.1 0 0 1 112.1 182H242v60a30 30 0 0 0 60 0V182h180v60a30 30 0 0 0 60 0V182h180v60a30 30 0 0 0 60 0V182h129.9a20.1 20.1 0 0 1 20.1 20.1z"
     fill="#343231"
     id="path2"
     style="fill:#bbeeff;fill-opacity:1" />
  <path
     d="M242 392h120v90H242zM242 542h120v90H242zM242 692h120v90H242zM452 692h120v90h-120zM452 542h120v90h-120zM452 392h120v90h-120zM662 692h120v90h-120zM662 542h120v90h-120zM662 392h120v90h-120z"
     fill="#343231"
     id="path4"
     style="fill:#bbeeff;fill-opacity:1" />
</svg>
