<?xml version="1.0" encoding="UTF-8" standalone="no"?>
<svg
   viewBox="0 0 500 500"
   version="1.1"
   id="svg36"
   sodipodi:docname="aliaswinter black bg 500px.svg"
   inkscape:export-filename="aliaswinter black bg 300dpi 500px.png"
   inkscape:export-xdpi="300"
   inkscape:export-ydpi="300"
   width="500"
   height="500"
   inkscape:version="1.2.1 (9c6d41e410, 2022-07-14)"
   xmlns:inkscape="http://www.inkscape.org/namespaces/inkscape"
   xmlns:sodipodi="http://sodipodi.sourceforge.net/DTD/sodipodi-0.dtd"
   xmlns="http://www.w3.org/2000/svg"
   xmlns:svg="http://www.w3.org/2000/svg"
   xmlns:rdf="http://www.w3.org/1999/02/22-rdf-syntax-ns#"
   xmlns:cc="http://creativecommons.org/ns#"
   xmlns:dc="http://purl.org/dc/elements/1.1/">
  <sodipodi:namedview
     id="namedview38"
     pagecolor="#505050"
     bordercolor="#ffffff"
     borderopacity="1"
     inkscape:showpageshadow="0"
     inkscape:pageopacity="0"
     inkscape:pagecheckerboard="1"
     inkscape:deskcolor="#505050"
     showgrid="false"
     inkscape:zoom="1.6397638"
     inkscape:cx="99.709484"
     inkscape:cy="237.53421"
     inkscape:window-width="2400"
     inkscape:window-height="1411"
     inkscape:window-x="-9"
     inkscape:window-y="-9"
     inkscape:window-maximized="1"
     inkscape:current-layer="svg36" />
  <defs
     id="defs4">
    <style
       id="style2">.cls-1{fill:#fff;}.cls-2{fill:none;stroke:#fff;stroke-miterlimit:10;stroke-width:7px;}</style>
  </defs>
  <title
     id="title6">Asset 7</title>
  <rect
     style="opacity:1;fill:#000000;stroke-width:0.3;stroke-linejoin:bevel;stroke-miterlimit:1.5;paint-order:stroke fill markers"
     id="rect530"
     width="558.61707"
     height="536.0528"
     x="-21.344538"
     y="-15.855943" />
  <g
     id="Layer_2"
     data-name="Layer 2"
     transform="matrix(1.1935484,0,0,1.1935484,83.499998,98.419353)">
    <g
       id="Layer_1-2"
       data-name="Layer 1">
      <rect
         width="279"
         height="254"
         id="rect8"
         x="0"
         y="0" />
      <path
         class="cls-1"
         d="m 79.1,45.9 c 0,0 -2.61,-1.28 -2.61,-0.28 A 17.06,17.06 0 0 1 75.7,49 l -1.07,5.86 a 15.63,15.63 0 0 0 -1.14,4.75 c 0,2 -1.86,9.14 -1,9 0.86,-0.14 0,2 0,2 l -1.27,2.8 -1.73,5.2 a 10.34,10.34 0 0 0 -1,4 v 5.69 l -1,2.31 5,-1 a 12.38,12.38 0 0 0 3,2 c 2,1 4,-1 4,-1 l 1,-7 3,-20 1,-3 5,23 1,7 c 0,0 5,2 8,1 a 15.77,15.77 0 0 1 4,-1 L 96.92,58.73 c 0,0 0.57,-0.11 0.57,-3.11 0,-3 -3,-10 -3,-10"
         id="path10" />
      <path
         class="cls-1"
         d="m 105.49,46.62 c 0,0 -1,17 0,18 1,1 0,6 0,6 v 5 c 0,0 -1,12 0,12 1,0 0,3 0,3 l 7,1 c 0,0 3,1 4,0 1,-1 12,-1 12,-1 v -10 h -10 c 0,0 0,-4 -1,-6 -1,-2 1,-6 1,-6 l -1,-20 v -3"
         id="path12" />
      <path
         class="cls-1"
         d="m 131.49,45.62 c 0,0 5,-1 5,0 0,1 3,1 3,1 l 4,-1 c 0,0 1,5 0,6 -1,1 0,11 0,11 v 7 l 1,10 c 0,0 0,7 -1,9 -1,2 -2,2 -2,2 h -10"
         id="path14" />
      <path
         class="cls-1"
         d="m 159.1,45.6 c 0,0 -2.61,-1.28 -2.61,-0.28 a 17.06,17.06 0 0 1 -0.79,3.39 l -1.07,5.86 a 15.63,15.63 0 0 0 -1.14,4.75 c 0,2 -1.86,9.13 -1,9 0.86,-0.13 0,2 0,2 l -1.27,2.8 -1.73,5.2 a 10.34,10.34 0 0 0 -1,4 V 88 l -1,2.31 5,-1 a 12.38,12.38 0 0 0 3,2 c 2,1 4,-1 4,-1 l 1,-7 3,-20 1,-3 5,23 1,7 c 0,0 5,2 8,1 a 15.77,15.77 0 0 1 4,-1 l -5.57,-31.9 c 0,0 0.57,-0.1 0.57,-3.1 0,-3 -3,-10 -3,-10"
         id="path16" />
      <path
         class="cls-1"
         d="m 208.49,57.62 2,-11 c 0,0 -11,-2 -11,-1 0,1 -6,0 -6,0 l -5,2 c 0,0 -4,1 -3,3 1,2 -2,6 -2,6 l 1,8 1,2 c 1,2 4,4 4,4 l 5,3 c 0,0 4,1 4,3 v 4 c 0,0 -3,1 -5,0 -2,-1 -8,-2 -8,-2 l -1,11 c 0,0 12,3 13,2 1,-1 7,0 8,-2 1,-2 6,-6 6,-8 0,-2 1,-6 0,-8 -1,-2 -3,-7 -4,-8 -1,-1 -7,-3 -7,-3 0,0 -2,1 -2,-2 0,-3 -2,-5 1,-4 3,1 9,1 9,1 z"
         id="path18" />
      <path
         class="cls-1"
         d="m 56.49,103.62 c 0,0 -14,-2 -13,0 1,2 2,9 2,9 v 12 a 10.07,10.07 0 0 1 1,3 c 0,1 1,7 1,7 v 6 c 0,0 0,7 1,7 h 1 l 6,1 a 10.07,10.07 0 0 1 3,-1 h 5 l 3,-19 h 1 l 4,19 h 6 c 1,0 2,1 3,1 a 43.31,43.31 0 0 0 5,-1 l 1,-1 1,-22 v -3 c 0,-1 1,-6 1,-6 l 1,-6 v -6 l -8,-1 -3,1 -2,18 c 0,0 -3,-13 -3,-15 v -3 l -7,1 -5,-1 -3,17"
         id="path20" />
      <path
         class="cls-1"
         d="m 94.49,103.62 c 0,0 9,-1 9,0 0,1 3,1 3,1 0,0 1,15 0,16 -1,1 -1,6 0,7 1,1 0,5 0,5 v 9 c 0,0 1,2 0,3 a 4.94,4.94 0 0 0 -1,3 l -10,1 -1,-1"
         id="path22" />
      <path
         class="cls-1"
         d="m 113.49,103.62 c 0,0 7,-1 9,0 2,1 3,0 3,0 l 2,7 7,15 c 0,0 0,-22 1,-22 1,0 5,-1 5,0 0,1 5,1 5,1 v 27 c 0,0 -1,8 0,9 1,1 0,7 0,7 0,0 -10,2 -11,0 -1,-2 -3,-5 -3,-5 l -7,-15 c 0,0 -2,12 -1,12 1,0 1,9 1,9 l -11,-1 z"
         id="path24" />
      <path
         class="cls-1"
         d="m 147.49,113.62 1,-10 h 29 c 0,0 1,5 0,7 a 12.38,12.38 0 0 1 -2,3 l -6,1 c 0,0 -2,17 -1,19 1,2 1,15 1,15 h -13 c 0,0 1,-19 1,-20 v -14 z"
         id="path26" />
      <path
         class="cls-1"
         d="m 179.49,103.62 h 25 c 0,0 -4,11 -3,11 h -9 v 7 c 0,0 9,-1 9,0 a 43.31,43.31 0 0 0 1,5 v 4 h -10 l -1,7 c 0,0 3,4 6,2 a 14.33,14.33 0 0 1 7,-2 l -2,11 -23,1 c 0,0 -1,-21 0,-23 1,-2 0,-23 0,-23 z"
         id="path28" />
      <path
         class="cls-1"
         d="m 208.49,103.62 c 0,0 15,-1 15,0 0,1 7,1 7,1 0,0 6,3 7,9 1,6 -2,14 -3,15 -1,1 3,11 3,11 0,0 1,9 2,9 1,0 -12,1 -12,1 l -7,-17 v 16 c 0,0 -8,2 -10,0 -2,-2 -3,0 -3,0 v -44 z"
         id="path30" />
      <polygon
         class="cls-2"
         points="183.5,168.5 137.5,209.5 91.5,168.5 165.5,168.5 "
         id="polygon32" />
    </g>
  </g>
  <metadata
     id="metadata476">
    <rdf:RDF>
      <cc:Work
         rdf:about="">
        <dc:title>Asset 7</dc:title>
      </cc:Work>
    </rdf:RDF>
  </metadata>
</svg>
