<svg xmlns="http://www.w3.org/2000/svg" viewBox="0 0 279 254"><defs><style>.cls-1,.cls-3{fill:none;}.cls-2{fill:#fff;}.cls-3{stroke:#fff;stroke-miterlimit:10;stroke-width:7px;}</style></defs><title>alias winter white svg</title><g id="Layer_2" data-name="Layer 2"><g id="Layer_1-2" data-name="Layer 1"><rect class="cls-1" width="279" height="254"/><path class="cls-2" d="M79.1,45.9s-2.61-1.28-2.61-.28A17.06,17.06,0,0,1,75.7,49l-1.07,5.86a15.63,15.63,0,0,0-1.14,4.75c0,2-1.86,9.14-1,9s0,2,0,2l-1.27,2.8-1.73,5.2a10.34,10.34,0,0,0-1,4v5.69l-1,2.31,5-1a12.38,12.38,0,0,0,3,2c2,1,4-1,4-1l1-7,3-20,1-3,5,23,1,7s5,2,8,1a15.77,15.77,0,0,1,4-1L96.92,58.73s.57-.11.57-3.11-3-10-3-10"/><path class="cls-2" d="M105.49,46.62s-1,17,0,18,0,6,0,6v5s-1,12,0,12,0,3,0,3l7,1s3,1,4,0,12-1,12-1v-10h-10s0-4-1-6,1-6,1-6l-1-20v-3"/><path class="cls-2" d="M131.49,45.62s5-1,5,0,3,1,3,1l4-1s1,5,0,6,0,11,0,11v7l1,10s0,7-1,9-2,2-2,2h-10"/><path class="cls-2" d="M159.1,45.6s-2.61-1.28-2.61-.28a17.06,17.06,0,0,1-.79,3.39l-1.07,5.86a15.63,15.63,0,0,0-1.14,4.75c0,2-1.86,9.13-1,9s0,2,0,2l-1.27,2.8-1.73,5.2a10.34,10.34,0,0,0-1,4V88l-1,2.31,5-1a12.38,12.38,0,0,0,3,2c2,1,4-1,4-1l1-7,3-20,1-3,5,23,1,7s5,2,8,1a15.77,15.77,0,0,1,4-1l-5.57-31.9s.57-.1.57-3.1-3-10-3-10"/><path class="cls-2" d="M208.49,57.62l2-11s-11-2-11-1-6,0-6,0l-5,2s-4,1-3,3-2,6-2,6l1,8,1,2c1,2,4,4,4,4l5,3s4,1,4,3v4s-3,1-5,0-8-2-8-2l-1,11s12,3,13,2,7,0,8-2,6-6,6-8,1-6,0-8-3-7-4-8-7-3-7-3-2,1-2-2-2-5,1-4S208.49,57.62,208.49,57.62Z"/><path class="cls-2" d="M56.49,103.62s-14-2-13,0,2,9,2,9v12a10.07,10.07,0,0,1,1,3c0,1,1,7,1,7v6s0,7,1,7h1l6,1a10.07,10.07,0,0,1,3-1h5l3-19h1l4,19h6c1,0,2,1,3,1a43.31,43.31,0,0,0,5-1l1-1,1-22v-3c0-1,1-6,1-6l1-6v-6l-8-1-3,1-2,18s-3-13-3-15v-3l-7,1-5-1-3,17"/><path class="cls-2" d="M94.49,103.62s9-1,9,0,3,1,3,1,1,15,0,16-1,6,0,7,0,5,0,5v9s1,2,0,3a4.94,4.94,0,0,0-1,3l-10,1-1-1"/><path class="cls-2" d="M113.49,103.62s7-1,9,0,3,0,3,0l2,7,7,15s0-22,1-22,5-1,5,0,5,1,5,1v27s-1,8,0,9,0,7,0,7-10,2-11,0-3-5-3-5l-7-15s-2,12-1,12,1,9,1,9l-11-1v-44Z"/><path class="cls-2" d="M147.49,113.62l1-10h29s1,5,0,7a12.38,12.38,0,0,1-2,3l-6,1s-2,17-1,19,1,15,1,15h-13s1-19,1-20v-14Z"/><path class="cls-2" d="M179.49,103.62h25s-4,11-3,11h-9v7s9-1,9,0a43.31,43.31,0,0,0,1,5v4h-10l-1,7s3,4,6,2a14.33,14.33,0,0,1,7-2l-2,11-23,1s-1-21,0-23S179.49,103.62,179.49,103.62Z"/><path class="cls-2" d="M208.49,103.62s15-1,15,0,7,1,7,1,6,3,7,9-2,14-3,15,3,11,3,11,1,9,2,9-12,1-12,1l-7-17v16s-8,2-10,0-3,0-3,0v-44Z"/><polygon class="cls-3" points="137.5 209.5 91.5 168.5 165.5 168.5 183.5 168.5 137.5 209.5"/></g></g></svg>